<?xml version="1.0" encoding="UTF-8" standalone="no"?>
<!DOCTYPE svg PUBLIC "-//W3C//DTD SVG 1.1//EN"
 "http://www.w3.org/Graphics/SVG/1.1/DTD/svg11.dtd">
<!-- Generated by graphviz version 2.26.3 (20100126.1600)
 -->
<!-- Title: test Pages: 1 -->
<svg width="489pt" height="678pt"
 viewBox="0.00 0.00 489.00 678.00" xmlns="http://www.w3.org/2000/svg" xmlns:xlink="http://www.w3.org/1999/xlink">
<g id="graph1" class="graph" transform="scale(1 1) rotate(0) translate(4 674)">
<title>test</title>
<polygon fill="lightgoldenrodyellow" stroke="lightgoldenrodyellow" points="-4,5 -4,-674 486,-674 486,5 -4,5"/>
<!-- node1 -->
<g id="node1" class="node"><title>node1</title>
<polygon fill="white" stroke="black" points="147.5,-568.5 147.5,-669.5 272.5,-669.5 272.5,-568.5 147.5,-568.5"/>
<text text-anchor="middle" x="210" y="-652.9" font-family="Times Roman,serif" font-size="14.00">channels</text>
<polyline fill="none" stroke="black" points="147.5,-644.5 272.5,-644.5 "/>
<text text-anchor="start" x="155.5" y="-627.9" font-family="Times Roman,serif" font-size="14.00">&#45; id [PK]</text>
<text text-anchor="start" x="155.5" y="-610.9" font-family="Times Roman,serif" font-size="14.00">&#45; name [U]</text>
<text text-anchor="start" x="155.5" y="-593.9" font-family="Times Roman,serif" font-size="14.00">&#45; disp_name [U]</text>
<text text-anchor="start" x="155.5" y="-576.9" font-family="Times Roman,serif" font-size="14.00">&#45; welcome</text>
</g>
<!-- node3 -->
<g id="node3" class="node"><title>node3</title>
<polygon fill="white" stroke="black" points="146,-362.5 146,-531.5 274,-531.5 274,-362.5 146,-362.5"/>
<text text-anchor="middle" x="210" y="-514.9" font-family="Times Roman,serif" font-size="14.00">games</text>
<polyline fill="none" stroke="black" points="146,-506.5 274,-506.5 "/>
<text text-anchor="start" x="154" y="-489.9" font-family="Times Roman,serif" font-size="14.00">&#45; id [PK,FK]</text>
<text text-anchor="start" x="154" y="-472.9" font-family="Times Roman,serif" font-size="14.00">&#45; channel [FK,U]</text>
<text text-anchor="start" x="154" y="-455.9" font-family="Times Roman,serif" font-size="14.00">&#45; create_time</text>
<text text-anchor="start" x="154" y="-438.9" font-family="Times Roman,serif" font-size="14.00">&#45; activity_time</text>
<text text-anchor="start" x="154" y="-421.9" font-family="Times Roman,serif" font-size="14.00">&#45; round_time</text>
<text text-anchor="start" x="154" y="-404.9" font-family="Times Roman,serif" font-size="14.00">&#45; status</text>
<text text-anchor="start" x="154" y="-387.9" font-family="Times Roman,serif" font-size="14.00">&#45; packs</text>
<text text-anchor="start" x="154" y="-370.9" font-family="Times Roman,serif" font-size="14.00">&#45; bcardidx [N]</text>
</g>
<!-- node1&#45;&gt;node3 -->
<g id="edge2" class="edge"><title>node1&#45;&gt;node3</title>
<path fill="none" stroke="black" d="M210,-568.325C210,-559.81 210,-550.737 210,-541.532"/>
<polygon fill="black" stroke="black" points="213.5,-541.512 210,-531.512 206.5,-541.512 213.5,-541.512"/>
</g>
<!-- node2 -->
<g id="node2" class="node"><title>node2</title>
<polygon fill="white" stroke="black" points="-0.5,-396.5 -0.5,-497.5 128.5,-497.5 128.5,-396.5 -0.5,-396.5"/>
<text text-anchor="middle" x="64" y="-480.9" font-family="Times Roman,serif" font-size="14.00">users</text>
<polyline fill="none" stroke="black" points="-0.5,-472.5 128.5,-472.5 "/>
<text text-anchor="start" x="7.5" y="-455.9" font-family="Times Roman,serif" font-size="14.00">&#45; id [PK]</text>
<text text-anchor="start" x="7.5" y="-438.9" font-family="Times Roman,serif" font-size="14.00">&#45; nick [U]</text>
<text text-anchor="start" x="7.5" y="-421.9" font-family="Times Roman,serif" font-size="14.00">&#45; disp_nick [U,N]</text>
<text text-anchor="start" x="7.5" y="-404.9" font-family="Times Roman,serif" font-size="14.00">&#45; pronoun [N]</text>
</g>
<!-- node4 -->
<g id="node4" class="node"><title>node4</title>
<polygon fill="white" stroke="black" points="137,-139 137,-325 253,-325 253,-139 137,-139"/>
<text text-anchor="middle" x="195" y="-308.4" font-family="Times Roman,serif" font-size="14.00">users_games</text>
<polyline fill="none" stroke="black" points="137,-300 253,-300 "/>
<text text-anchor="start" x="145" y="-283.4" font-family="Times Roman,serif" font-size="14.00">&#45; id [PK]</text>
<text text-anchor="start" x="145" y="-266.4" font-family="Times Roman,serif" font-size="14.00">&#45; user [FK,U]</text>
<text text-anchor="start" x="145" y="-249.4" font-family="Times Roman,serif" font-size="14.00">&#45; game [FK,U]</text>
<text text-anchor="start" x="145" y="-232.4" font-family="Times Roman,serif" font-size="14.00">&#45; wins</text>
<text text-anchor="start" x="145" y="-215.4" font-family="Times Roman,serif" font-size="14.00">&#45; hands</text>
<text text-anchor="start" x="145" y="-198.4" font-family="Times Roman,serif" font-size="14.00">&#45; tsarcount</text>
<text text-anchor="start" x="145" y="-181.4" font-family="Times Roman,serif" font-size="14.00">&#45; is_tsar</text>
<text text-anchor="start" x="145" y="-164.4" font-family="Times Roman,serif" font-size="14.00">&#45; activity_time</text>
<text text-anchor="start" x="145" y="-147.4" font-family="Times Roman,serif" font-size="14.00">&#45; active</text>
</g>
<!-- node2&#45;&gt;node4 -->
<g id="edge12" class="edge"><title>node2&#45;&gt;node4</title>
<path fill="none" stroke="black" d="M94.8793,-396.32C106.298,-377.579 119.688,-355.604 132.893,-333.932"/>
<polygon fill="black" stroke="black" points="135.922,-335.687 138.136,-325.326 129.944,-332.044 135.922,-335.687"/>
</g>
<!-- node9 -->
<g id="node9" class="node"><title>node9</title>
<polygon fill="white" stroke="black" points="8.5,-181.5 8.5,-282.5 119.5,-282.5 119.5,-181.5 8.5,-181.5"/>
<text text-anchor="middle" x="64" y="-265.9" font-family="Times Roman,serif" font-size="14.00">waiters</text>
<polyline fill="none" stroke="black" points="8.5,-257.5 119.5,-257.5 "/>
<text text-anchor="start" x="16.5" y="-240.9" font-family="Times Roman,serif" font-size="14.00">&#45; id [PK]</text>
<text text-anchor="start" x="16.5" y="-223.9" font-family="Times Roman,serif" font-size="14.00">&#45; user [FK,U]</text>
<text text-anchor="start" x="16.5" y="-206.9" font-family="Times Roman,serif" font-size="14.00">&#45; game [FK,U]</text>
<text text-anchor="start" x="16.5" y="-189.9" font-family="Times Roman,serif" font-size="14.00">&#45; wait_since</text>
</g>
<!-- node2&#45;&gt;node9 -->
<g id="edge14" class="edge"><title>node2&#45;&gt;node9</title>
<path fill="none" stroke="black" d="M64,-396.32C64,-365.402 64,-325.683 64,-293.041"/>
<polygon fill="black" stroke="black" points="67.5001,-292.712 64,-282.712 60.5001,-292.712 67.5001,-292.712"/>
</g>
<!-- node3&#45;&gt;node4 -->
<g id="edge6" class="edge"><title>node3&#45;&gt;node4</title>
<path fill="none" stroke="black" d="M197.48,-362.335C196.753,-353.456 196.074,-344.358 195.462,-335.301"/>
<polygon fill="black" stroke="black" points="198.94,-334.858 194.8,-325.105 191.955,-335.311 198.94,-334.858"/>
</g>
<!-- node5 -->
<g id="node5" class="node"><title>node5</title>
<polygon fill="white" stroke="black" points="271,-190 271,-274 367,-274 367,-190 271,-190"/>
<text text-anchor="middle" x="319" y="-257.4" font-family="Times Roman,serif" font-size="14.00">bcards</text>
<polyline fill="none" stroke="black" points="271,-249 367,-249 "/>
<text text-anchor="start" x="279" y="-232.4" font-family="Times Roman,serif" font-size="14.00">&#45; id [PK]</text>
<text text-anchor="start" x="279" y="-215.4" font-family="Times Roman,serif" font-size="14.00">&#45; game [FK]</text>
<text text-anchor="start" x="279" y="-198.4" font-family="Times Roman,serif" font-size="14.00">&#45; cardidx</text>
</g>
<!-- node3&#45;&gt;node5 -->
<g id="edge4" class="edge"><title>node3&#45;&gt;node5</title>
<path fill="none" stroke="black" d="M252.923,-362.335C266.492,-335.57 281.065,-306.826 293.063,-283.159"/>
<polygon fill="black" stroke="black" points="296.297,-284.521 297.697,-274.02 290.053,-281.356 296.297,-284.521"/>
</g>
<!-- node8 -->
<g id="node8" class="node"><title>node8</title>
<polygon fill="white" stroke="black" points="385,-190 385,-274 481,-274 481,-190 385,-190"/>
<text text-anchor="middle" x="433" y="-257.4" font-family="Times Roman,serif" font-size="14.00">wcards</text>
<polyline fill="none" stroke="black" points="385,-249 481,-249 "/>
<text text-anchor="start" x="393" y="-232.4" font-family="Times Roman,serif" font-size="14.00">&#45; id [PK]</text>
<text text-anchor="start" x="393" y="-215.4" font-family="Times Roman,serif" font-size="14.00">&#45; game [FK]</text>
<text text-anchor="start" x="393" y="-198.4" font-family="Times Roman,serif" font-size="14.00">&#45; cardidx</text>
</g>
<!-- node3&#45;&gt;node8 -->
<g id="edge10" class="edge"><title>node3&#45;&gt;node8</title>
<path fill="none" stroke="black" d="M274.234,-408.851C307.165,-387.261 346.445,-358.173 376,-326 387.655,-313.313 398.177,-297.886 406.917,-283.229"/>
<polygon fill="black" stroke="black" points="410.143,-284.642 412.122,-274.234 404.084,-281.136 410.143,-284.642"/>
</g>
<!-- node3&#45;&gt;node9 -->
<g id="edge8" class="edge"><title>node3&#45;&gt;node9</title>
<path fill="none" stroke="black" d="M152.507,-362.335C136.374,-338.579 119.183,-313.263 104.284,-291.322"/>
<polygon fill="black" stroke="black" points="106.993,-289.081 98.4797,-282.775 101.202,-293.014 106.993,-289.081"/>
</g>
<!-- node4&#45;&gt;node3 -->
<g id="edge16" class="edge"><title>node4&#45;&gt;node3</title>
<path fill="none" stroke="black" d="M208.192,-325.105C208.887,-334.096 209.528,-343.224 210.096,-352.231"/>
<polygon fill="black" stroke="black" points="206.61,-352.564 210.706,-362.335 213.597,-352.142 206.61,-352.564"/>
</g>
<!-- node6 -->
<g id="node6" class="node"><title>node6</title>
<polygon fill="white" stroke="black" points="22.5,-9 22.5,-93 189.5,-93 189.5,-9 22.5,-9"/>
<text text-anchor="middle" x="106" y="-76.4" font-family="Times Roman,serif" font-size="14.00">users_games_discards</text>
<polyline fill="none" stroke="black" points="22.5,-68 189.5,-68 "/>
<text text-anchor="start" x="30.5" y="-51.4" font-family="Times Roman,serif" font-size="14.00">&#45; id [PK]</text>
<text text-anchor="start" x="30.5" y="-34.4" font-family="Times Roman,serif" font-size="14.00">&#45; user_game [FK,U]</text>
<text text-anchor="start" x="30.5" y="-17.4" font-family="Times Roman,serif" font-size="14.00">&#45; wcardidx [U]</text>
</g>
<!-- node4&#45;&gt;node6 -->
<g id="edge18" class="edge"><title>node4&#45;&gt;node6</title>
<path fill="none" stroke="black" d="M149.196,-138.849C143.074,-126.397 136.984,-114.013 131.392,-102.639"/>
<polygon fill="black" stroke="black" points="134.374,-100.773 126.821,-93.3436 128.093,-103.862 134.374,-100.773"/>
</g>
<!-- node7 -->
<g id="node7" class="node"><title>node7</title>
<polygon fill="white" stroke="black" points="207,-0.5 207,-101.5 361,-101.5 361,-0.5 207,-0.5"/>
<text text-anchor="middle" x="284" y="-84.9" font-family="Times Roman,serif" font-size="14.00">users_games_hands</text>
<polyline fill="none" stroke="black" points="207,-76.5 361,-76.5 "/>
<text text-anchor="start" x="215" y="-59.9" font-family="Times Roman,serif" font-size="14.00">&#45; id [PK]</text>
<text text-anchor="start" x="215" y="-42.9" font-family="Times Roman,serif" font-size="14.00">&#45; user_game [FK,U]</text>
<text text-anchor="start" x="215" y="-25.9" font-family="Times Roman,serif" font-size="14.00">&#45; wcardidx [U,N]</text>
<text text-anchor="start" x="215" y="-8.9" font-family="Times Roman,serif" font-size="14.00">&#45; pos [U,N]</text>
</g>
<!-- node4&#45;&gt;node7 -->
<g id="edge20" class="edge"><title>node4&#45;&gt;node7</title>
<path fill="none" stroke="black" d="M240.804,-138.849C245.482,-129.334 250.141,-119.859 254.574,-110.844"/>
<polygon fill="black" stroke="black" points="257.831,-112.151 259.103,-101.633 251.55,-109.062 257.831,-112.151"/>
</g>
</g>
</svg>
