<?xml version="1.0" encoding="UTF-8" standalone="no"?>
<!DOCTYPE svg PUBLIC "-//W3C//DTD SVG 1.1//EN"
 "http://www.w3.org/Graphics/SVG/1.1/DTD/svg11.dtd">
<!-- Generated by graphviz version 2.26.3 (20100126.1600)
 -->
<!-- Title: test Pages: 1 -->
<svg width="608pt" height="678pt"
 viewBox="0.00 0.00 608.00 678.00" xmlns="http://www.w3.org/2000/svg" xmlns:xlink="http://www.w3.org/1999/xlink">
<g id="graph1" class="graph" transform="scale(1 1) rotate(0) translate(4 674)">
<title>test</title>
<polygon fill="lightgoldenrodyellow" stroke="lightgoldenrodyellow" points="-4,5 -4,-674 605,-674 605,5 -4,5"/>
<!-- node1 -->
<g id="node1" class="node"><title>node1</title>
<polygon fill="white" stroke="black" points="258.5,-568.5 258.5,-669.5 383.5,-669.5 383.5,-568.5 258.5,-568.5"/>
<text text-anchor="middle" x="321" y="-652.9" font-family="Times Roman,serif" font-size="14.00">channels</text>
<polyline fill="none" stroke="black" points="258.5,-644.5 383.5,-644.5 "/>
<text text-anchor="start" x="266.5" y="-627.9" font-family="Times Roman,serif" font-size="14.00">&#45; id [PK]</text>
<text text-anchor="start" x="266.5" y="-610.9" font-family="Times Roman,serif" font-size="14.00">&#45; name [U]</text>
<text text-anchor="start" x="266.5" y="-593.9" font-family="Times Roman,serif" font-size="14.00">&#45; disp_name [U]</text>
<text text-anchor="start" x="266.5" y="-576.9" font-family="Times Roman,serif" font-size="14.00">&#45; welcome</text>
</g>
<!-- node4 -->
<g id="node4" class="node"><title>node4</title>
<polygon fill="white" stroke="black" points="257,-362.5 257,-531.5 385,-531.5 385,-362.5 257,-362.5"/>
<text text-anchor="middle" x="321" y="-514.9" font-family="Times Roman,serif" font-size="14.00">games</text>
<polyline fill="none" stroke="black" points="257,-506.5 385,-506.5 "/>
<text text-anchor="start" x="265" y="-489.9" font-family="Times Roman,serif" font-size="14.00">&#45; id [PK,FK]</text>
<text text-anchor="start" x="265" y="-472.9" font-family="Times Roman,serif" font-size="14.00">&#45; channel [FK,U]</text>
<text text-anchor="start" x="265" y="-455.9" font-family="Times Roman,serif" font-size="14.00">&#45; create_time</text>
<text text-anchor="start" x="265" y="-438.9" font-family="Times Roman,serif" font-size="14.00">&#45; activity_time</text>
<text text-anchor="start" x="265" y="-421.9" font-family="Times Roman,serif" font-size="14.00">&#45; round_time</text>
<text text-anchor="start" x="265" y="-404.9" font-family="Times Roman,serif" font-size="14.00">&#45; status</text>
<text text-anchor="start" x="265" y="-387.9" font-family="Times Roman,serif" font-size="14.00">&#45; packs</text>
<text text-anchor="start" x="265" y="-370.9" font-family="Times Roman,serif" font-size="14.00">&#45; bcardidx [N]</text>
</g>
<!-- node1&#45;&gt;node4 -->
<g id="edge2" class="edge"><title>node1&#45;&gt;node4</title>
<path fill="none" stroke="black" d="M321,-568.325C321,-559.81 321,-550.737 321,-541.532"/>
<polygon fill="black" stroke="black" points="324.5,-541.512 321,-531.512 317.5,-541.512 324.5,-541.512"/>
</g>
<!-- node2 -->
<g id="node2" class="node"><title>node2</title>
<polygon fill="white" stroke="black" points="110.5,-396.5 110.5,-497.5 239.5,-497.5 239.5,-396.5 110.5,-396.5"/>
<text text-anchor="middle" x="175" y="-480.9" font-family="Times Roman,serif" font-size="14.00">users</text>
<polyline fill="none" stroke="black" points="110.5,-472.5 239.5,-472.5 "/>
<text text-anchor="start" x="118.5" y="-455.9" font-family="Times Roman,serif" font-size="14.00">&#45; id [PK]</text>
<text text-anchor="start" x="118.5" y="-438.9" font-family="Times Roman,serif" font-size="14.00">&#45; nick [U]</text>
<text text-anchor="start" x="118.5" y="-421.9" font-family="Times Roman,serif" font-size="14.00">&#45; disp_nick [U,N]</text>
<text text-anchor="start" x="118.5" y="-404.9" font-family="Times Roman,serif" font-size="14.00">&#45; pronoun [N]</text>
</g>
<!-- node3 -->
<g id="node3" class="node"><title>node3</title>
<polygon fill="white" stroke="black" points="0,-181.5 0,-282.5 110,-282.5 110,-181.5 0,-181.5"/>
<text text-anchor="middle" x="55" y="-265.9" font-family="Times Roman,serif" font-size="14.00">settings</text>
<polyline fill="none" stroke="black" points="0,-257.5 110,-257.5 "/>
<text text-anchor="start" x="8" y="-240.9" font-family="Times Roman,serif" font-size="14.00">&#45; id [PK]</text>
<text text-anchor="start" x="8" y="-223.9" font-family="Times Roman,serif" font-size="14.00">&#45; user [FK,U]</text>
<text text-anchor="start" x="8" y="-206.9" font-family="Times Roman,serif" font-size="14.00">&#45; pronoun [N]</text>
<text text-anchor="start" x="8" y="-189.9" font-family="Times Roman,serif" font-size="14.00">&#45; chatpoke</text>
</g>
<!-- node2&#45;&gt;node3 -->
<g id="edge12" class="edge"><title>node2&#45;&gt;node3</title>
<path fill="none" stroke="black" d="M146.714,-396.32C129.233,-365 106.712,-324.65 88.3616,-291.773"/>
<polygon fill="black" stroke="black" points="91.2341,-289.738 83.3042,-282.712 85.1217,-293.149 91.2341,-289.738"/>
</g>
<!-- node5 -->
<g id="node5" class="node"><title>node5</title>
<polygon fill="white" stroke="black" points="256,-139 256,-325 372,-325 372,-139 256,-139"/>
<text text-anchor="middle" x="314" y="-308.4" font-family="Times Roman,serif" font-size="14.00">users_games</text>
<polyline fill="none" stroke="black" points="256,-300 372,-300 "/>
<text text-anchor="start" x="264" y="-283.4" font-family="Times Roman,serif" font-size="14.00">&#45; id [PK]</text>
<text text-anchor="start" x="264" y="-266.4" font-family="Times Roman,serif" font-size="14.00">&#45; user [FK,U]</text>
<text text-anchor="start" x="264" y="-249.4" font-family="Times Roman,serif" font-size="14.00">&#45; game [FK,U]</text>
<text text-anchor="start" x="264" y="-232.4" font-family="Times Roman,serif" font-size="14.00">&#45; wins</text>
<text text-anchor="start" x="264" y="-215.4" font-family="Times Roman,serif" font-size="14.00">&#45; hands</text>
<text text-anchor="start" x="264" y="-198.4" font-family="Times Roman,serif" font-size="14.00">&#45; tsarcount</text>
<text text-anchor="start" x="264" y="-181.4" font-family="Times Roman,serif" font-size="14.00">&#45; is_tsar</text>
<text text-anchor="start" x="264" y="-164.4" font-family="Times Roman,serif" font-size="14.00">&#45; activity_time</text>
<text text-anchor="start" x="264" y="-147.4" font-family="Times Roman,serif" font-size="14.00">&#45; active</text>
</g>
<!-- node2&#45;&gt;node5 -->
<g id="edge14" class="edge"><title>node2&#45;&gt;node5</title>
<path fill="none" stroke="black" d="M207.765,-396.32C220.505,-376.615 235.555,-353.336 250.259,-330.592"/>
<polygon fill="black" stroke="black" points="253.382,-332.208 255.872,-321.91 247.504,-328.407 253.382,-332.208"/>
</g>
<!-- node10 -->
<g id="node10" class="node"><title>node10</title>
<polygon fill="white" stroke="black" points="127.5,-181.5 127.5,-282.5 238.5,-282.5 238.5,-181.5 127.5,-181.5"/>
<text text-anchor="middle" x="183" y="-265.9" font-family="Times Roman,serif" font-size="14.00">waiters</text>
<polyline fill="none" stroke="black" points="127.5,-257.5 238.5,-257.5 "/>
<text text-anchor="start" x="135.5" y="-240.9" font-family="Times Roman,serif" font-size="14.00">&#45; id [PK]</text>
<text text-anchor="start" x="135.5" y="-223.9" font-family="Times Roman,serif" font-size="14.00">&#45; user [FK,U]</text>
<text text-anchor="start" x="135.5" y="-206.9" font-family="Times Roman,serif" font-size="14.00">&#45; game [FK,U]</text>
<text text-anchor="start" x="135.5" y="-189.9" font-family="Times Roman,serif" font-size="14.00">&#45; wait_since</text>
</g>
<!-- node2&#45;&gt;node10 -->
<g id="edge16" class="edge"><title>node2&#45;&gt;node10</title>
<path fill="none" stroke="black" d="M176.886,-396.32C178.036,-365.402 179.514,-325.683 180.729,-293.041"/>
<polygon fill="black" stroke="black" points="184.239,-292.835 181.113,-282.712 177.244,-292.575 184.239,-292.835"/>
</g>
<!-- node4&#45;&gt;node5 -->
<g id="edge6" class="edge"><title>node4&#45;&gt;node5</title>
<path fill="none" stroke="black" d="M311.631,-362.335C311.233,-353.456 310.893,-344.358 310.618,-335.301"/>
<polygon fill="black" stroke="black" points="314.111,-335.005 310.335,-325.105 307.114,-335.198 314.111,-335.005"/>
</g>
<!-- node6 -->
<g id="node6" class="node"><title>node6</title>
<polygon fill="white" stroke="black" points="504,-190 504,-274 600,-274 600,-190 504,-190"/>
<text text-anchor="middle" x="552" y="-257.4" font-family="Times Roman,serif" font-size="14.00">bcards</text>
<polyline fill="none" stroke="black" points="504,-249 600,-249 "/>
<text text-anchor="start" x="512" y="-232.4" font-family="Times Roman,serif" font-size="14.00">&#45; id [PK]</text>
<text text-anchor="start" x="512" y="-215.4" font-family="Times Roman,serif" font-size="14.00">&#45; game [FK]</text>
<text text-anchor="start" x="512" y="-198.4" font-family="Times Roman,serif" font-size="14.00">&#45; cardidx</text>
</g>
<!-- node4&#45;&gt;node6 -->
<g id="edge4" class="edge"><title>node4&#45;&gt;node6</title>
<path fill="none" stroke="black" d="M385.065,-411.48C420.273,-389.868 463.133,-359.925 495,-326 506.795,-313.443 517.359,-298.055 526.093,-283.393"/>
<polygon fill="black" stroke="black" points="529.322,-284.8 531.29,-274.389 523.26,-281.301 529.322,-284.8"/>
</g>
<!-- node9 -->
<g id="node9" class="node"><title>node9</title>
<polygon fill="white" stroke="black" points="390,-190 390,-274 486,-274 486,-190 390,-190"/>
<text text-anchor="middle" x="438" y="-257.4" font-family="Times Roman,serif" font-size="14.00">wcards</text>
<polyline fill="none" stroke="black" points="390,-249 486,-249 "/>
<text text-anchor="start" x="398" y="-232.4" font-family="Times Roman,serif" font-size="14.00">&#45; id [PK]</text>
<text text-anchor="start" x="398" y="-215.4" font-family="Times Roman,serif" font-size="14.00">&#45; game [FK]</text>
<text text-anchor="start" x="398" y="-198.4" font-family="Times Roman,serif" font-size="14.00">&#45; cardidx</text>
</g>
<!-- node4&#45;&gt;node9 -->
<g id="edge10" class="edge"><title>node4&#45;&gt;node9</title>
<path fill="none" stroke="black" d="M367.074,-362.335C381.703,-335.452 397.419,-306.571 410.331,-282.845"/>
<polygon fill="black" stroke="black" points="413.428,-284.476 415.134,-274.02 407.279,-281.13 413.428,-284.476"/>
</g>
<!-- node4&#45;&gt;node10 -->
<g id="edge8" class="edge"><title>node4&#45;&gt;node10</title>
<path fill="none" stroke="black" d="M266.657,-362.335C251.409,-338.579 235.159,-313.263 221.077,-291.322"/>
<polygon fill="black" stroke="black" points="223.938,-289.3 215.59,-282.775 218.047,-293.081 223.938,-289.3"/>
</g>
<!-- node5&#45;&gt;node4 -->
<g id="edge18" class="edge"><title>node5&#45;&gt;node4</title>
<path fill="none" stroke="black" d="M323.727,-325.105C324.088,-334.096 324.389,-343.224 324.622,-352.231"/>
<polygon fill="black" stroke="black" points="321.126,-352.419 324.856,-362.335 328.124,-352.257 321.126,-352.419"/>
</g>
<!-- node7 -->
<g id="node7" class="node"><title>node7</title>
<polygon fill="white" stroke="black" points="141.5,-9 141.5,-93 308.5,-93 308.5,-9 141.5,-9"/>
<text text-anchor="middle" x="225" y="-76.4" font-family="Times Roman,serif" font-size="14.00">users_games_discards</text>
<polyline fill="none" stroke="black" points="141.5,-68 308.5,-68 "/>
<text text-anchor="start" x="149.5" y="-51.4" font-family="Times Roman,serif" font-size="14.00">&#45; id [PK]</text>
<text text-anchor="start" x="149.5" y="-34.4" font-family="Times Roman,serif" font-size="14.00">&#45; user_game [FK,U]</text>
<text text-anchor="start" x="149.5" y="-17.4" font-family="Times Roman,serif" font-size="14.00">&#45; wcardidx [U]</text>
</g>
<!-- node5&#45;&gt;node7 -->
<g id="edge20" class="edge"><title>node5&#45;&gt;node7</title>
<path fill="none" stroke="black" d="M268.196,-138.849C262.074,-126.397 255.984,-114.013 250.392,-102.639"/>
<polygon fill="black" stroke="black" points="253.374,-100.773 245.821,-93.3436 247.093,-103.862 253.374,-100.773"/>
</g>
<!-- node8 -->
<g id="node8" class="node"><title>node8</title>
<polygon fill="white" stroke="black" points="326,-0.5 326,-101.5 480,-101.5 480,-0.5 326,-0.5"/>
<text text-anchor="middle" x="403" y="-84.9" font-family="Times Roman,serif" font-size="14.00">users_games_hands</text>
<polyline fill="none" stroke="black" points="326,-76.5 480,-76.5 "/>
<text text-anchor="start" x="334" y="-59.9" font-family="Times Roman,serif" font-size="14.00">&#45; id [PK]</text>
<text text-anchor="start" x="334" y="-42.9" font-family="Times Roman,serif" font-size="14.00">&#45; user_game [FK,U]</text>
<text text-anchor="start" x="334" y="-25.9" font-family="Times Roman,serif" font-size="14.00">&#45; wcardidx [U,N]</text>
<text text-anchor="start" x="334" y="-8.9" font-family="Times Roman,serif" font-size="14.00">&#45; pos [U,N]</text>
</g>
<!-- node5&#45;&gt;node8 -->
<g id="edge22" class="edge"><title>node5&#45;&gt;node8</title>
<path fill="none" stroke="black" d="M359.804,-138.849C364.482,-129.334 369.141,-119.859 373.574,-110.844"/>
<polygon fill="black" stroke="black" points="376.831,-112.151 378.103,-101.633 370.55,-109.062 376.831,-112.151"/>
</g>
</g>
</svg>
