<?xml version="1.0" encoding="UTF-8" standalone="no"?>
<!DOCTYPE svg PUBLIC "-//W3C//DTD SVG 1.1//EN"
 "http://www.w3.org/Graphics/SVG/1.1/DTD/svg11.dtd">
<!-- Generated by graphviz version 2.26.3 (20100126.1600)
 -->
<!-- Title: test Pages: 1 -->
<svg width="466pt" height="646pt"
 viewBox="0.00 0.00 466.00 646.00" xmlns="http://www.w3.org/2000/svg" xmlns:xlink="http://www.w3.org/1999/xlink">
<g id="graph1" class="graph" transform="scale(1 1) rotate(0) translate(4 642)">
<title>test</title>
<polygon fill="lightgoldenrodyellow" stroke="lightgoldenrodyellow" points="-4,5 -4,-642 463,-642 463,5 -4,5"/>
<!-- node1 -->
<g id="node1" class="node"><title>node1</title>
<polygon fill="white" stroke="black" points="232.5,-536.5 232.5,-637.5 357.5,-637.5 357.5,-536.5 232.5,-536.5"/>
<text text-anchor="middle" x="295" y="-620.9" font-family="Times Roman,serif" font-size="14.00">channels</text>
<polyline fill="none" stroke="black" points="232.5,-612.5 357.5,-612.5 "/>
<text text-anchor="start" x="240.5" y="-595.9" font-family="Times Roman,serif" font-size="14.00">&#45; id [PK]</text>
<text text-anchor="start" x="240.5" y="-578.9" font-family="Times Roman,serif" font-size="14.00">&#45; name [U]</text>
<text text-anchor="start" x="240.5" y="-561.9" font-family="Times Roman,serif" font-size="14.00">&#45; disp_name [U]</text>
<text text-anchor="start" x="240.5" y="-544.9" font-family="Times Roman,serif" font-size="14.00">&#45; welcome</text>
</g>
<!-- node3 -->
<g id="node3" class="node"><title>node3</title>
<polygon fill="white" stroke="black" points="231,-347 231,-499 359,-499 359,-347 231,-347"/>
<text text-anchor="middle" x="295" y="-482.4" font-family="Times Roman,serif" font-size="14.00">games</text>
<polyline fill="none" stroke="black" points="231,-474 359,-474 "/>
<text text-anchor="start" x="239" y="-457.4" font-family="Times Roman,serif" font-size="14.00">&#45; id [PK,FK]</text>
<text text-anchor="start" x="239" y="-440.4" font-family="Times Roman,serif" font-size="14.00">&#45; channel [FK,U]</text>
<text text-anchor="start" x="239" y="-423.4" font-family="Times Roman,serif" font-size="14.00">&#45; create_time</text>
<text text-anchor="start" x="239" y="-406.4" font-family="Times Roman,serif" font-size="14.00">&#45; activity_time</text>
<text text-anchor="start" x="239" y="-389.4" font-family="Times Roman,serif" font-size="14.00">&#45; status</text>
<text text-anchor="start" x="239" y="-372.4" font-family="Times Roman,serif" font-size="14.00">&#45; deck</text>
<text text-anchor="start" x="239" y="-355.4" font-family="Times Roman,serif" font-size="14.00">&#45; bcardidx [N]</text>
</g>
<!-- node1&#45;&gt;node3 -->
<g id="edge2" class="edge"><title>node1&#45;&gt;node3</title>
<path fill="none" stroke="black" d="M295,-536.456C295,-527.748 295,-518.481 295,-509.143"/>
<polygon fill="black" stroke="black" points="298.5,-509.004 295,-499.005 291.5,-509.005 298.5,-509.004"/>
</g>
<!-- node2 -->
<g id="node2" class="node"><title>node2</title>
<polygon fill="white" stroke="black" points="132,-389.5 132,-456.5 212,-456.5 212,-389.5 132,-389.5"/>
<text text-anchor="middle" x="172" y="-439.9" font-family="Times Roman,serif" font-size="14.00">users</text>
<polyline fill="none" stroke="black" points="132,-431.5 212,-431.5 "/>
<text text-anchor="start" x="140" y="-414.9" font-family="Times Roman,serif" font-size="14.00">&#45; id [PK]</text>
<text text-anchor="start" x="140" y="-397.9" font-family="Times Roman,serif" font-size="14.00">&#45; nick [U]</text>
</g>
<!-- node4 -->
<g id="node4" class="node"><title>node4</title>
<polygon fill="white" stroke="black" points="114,-123 114,-309 230,-309 230,-123 114,-123"/>
<text text-anchor="middle" x="172" y="-292.4" font-family="Times Roman,serif" font-size="14.00">users_games</text>
<polyline fill="none" stroke="black" points="114,-284 230,-284 "/>
<text text-anchor="start" x="122" y="-267.4" font-family="Times Roman,serif" font-size="14.00">&#45; id [PK]</text>
<text text-anchor="start" x="122" y="-250.4" font-family="Times Roman,serif" font-size="14.00">&#45; user [FK,U]</text>
<text text-anchor="start" x="122" y="-233.4" font-family="Times Roman,serif" font-size="14.00">&#45; game [FK,U]</text>
<text text-anchor="start" x="122" y="-216.4" font-family="Times Roman,serif" font-size="14.00">&#45; wins</text>
<text text-anchor="start" x="122" y="-199.4" font-family="Times Roman,serif" font-size="14.00">&#45; hands</text>
<text text-anchor="start" x="122" y="-182.4" font-family="Times Roman,serif" font-size="14.00">&#45; tsarcount</text>
<text text-anchor="start" x="122" y="-165.4" font-family="Times Roman,serif" font-size="14.00">&#45; is_tsar</text>
<text text-anchor="start" x="122" y="-148.4" font-family="Times Roman,serif" font-size="14.00">&#45; activity_time</text>
<text text-anchor="start" x="122" y="-131.4" font-family="Times Roman,serif" font-size="14.00">&#45; active</text>
</g>
<!-- node2&#45;&gt;node4 -->
<g id="edge10" class="edge"><title>node2&#45;&gt;node4</title>
<path fill="none" stroke="black" d="M172,-389.281C172,-369.964 172,-344.576 172,-319.212"/>
<polygon fill="black" stroke="black" points="175.5,-319.127 172,-309.127 168.5,-319.127 175.5,-319.127"/>
</g>
<!-- node3&#45;&gt;node4 -->
<g id="edge6" class="edge"><title>node3&#45;&gt;node4</title>
<path fill="none" stroke="black" d="M243.187,-346.803C237.478,-337.447 231.658,-327.771 225.925,-318.111"/>
<polygon fill="black" stroke="black" points="228.792,-316.082 220.691,-309.254 222.766,-319.644 228.792,-316.082"/>
</g>
<!-- node5 -->
<g id="node5" class="node"><title>node5</title>
<polygon fill="white" stroke="black" points="248,-174 248,-258 344,-258 344,-174 248,-174"/>
<text text-anchor="middle" x="296" y="-241.4" font-family="Times Roman,serif" font-size="14.00">bcards</text>
<polyline fill="none" stroke="black" points="248,-233 344,-233 "/>
<text text-anchor="start" x="256" y="-216.4" font-family="Times Roman,serif" font-size="14.00">&#45; id [PK]</text>
<text text-anchor="start" x="256" y="-199.4" font-family="Times Roman,serif" font-size="14.00">&#45; game [FK]</text>
<text text-anchor="start" x="256" y="-182.4" font-family="Times Roman,serif" font-size="14.00">&#45; cardidx</text>
</g>
<!-- node3&#45;&gt;node5 -->
<g id="edge4" class="edge"><title>node3&#45;&gt;node5</title>
<path fill="none" stroke="black" d="M295.368,-346.803C295.494,-320.694 295.632,-292.089 295.747,-268.305"/>
<polygon fill="black" stroke="black" points="299.248,-268.103 295.797,-258.086 292.248,-268.069 299.248,-268.103"/>
</g>
<!-- node8 -->
<g id="node8" class="node"><title>node8</title>
<polygon fill="white" stroke="black" points="362,-174 362,-258 458,-258 458,-174 362,-174"/>
<text text-anchor="middle" x="410" y="-241.4" font-family="Times Roman,serif" font-size="14.00">wcards</text>
<polyline fill="none" stroke="black" points="362,-233 458,-233 "/>
<text text-anchor="start" x="370" y="-216.4" font-family="Times Roman,serif" font-size="14.00">&#45; id [PK]</text>
<text text-anchor="start" x="370" y="-199.4" font-family="Times Roman,serif" font-size="14.00">&#45; game [FK]</text>
<text text-anchor="start" x="370" y="-182.4" font-family="Times Roman,serif" font-size="14.00">&#45; cardidx</text>
</g>
<!-- node3&#45;&gt;node8 -->
<g id="edge8" class="edge"><title>node3&#45;&gt;node8</title>
<path fill="none" stroke="black" d="M337.332,-346.803C352.097,-320.226 368.299,-291.062 381.65,-267.03"/>
<polygon fill="black" stroke="black" points="384.822,-268.528 386.619,-258.086 378.703,-265.128 384.822,-268.528"/>
</g>
<!-- node4&#45;&gt;node3 -->
<g id="edge12" class="edge"><title>node4&#45;&gt;node3</title>
<path fill="none" stroke="black" d="M230.08,-302.522C237.154,-314.237 244.287,-326.249 251.11,-337.938"/>
<polygon fill="black" stroke="black" points="248.21,-339.914 256.26,-346.803 254.263,-336.398 248.21,-339.914"/>
</g>
<!-- node6 -->
<g id="node6" class="node"><title>node6</title>
<polygon fill="white" stroke="black" points="-0.5,-1 -0.5,-85 166.5,-85 166.5,-1 -0.5,-1"/>
<text text-anchor="middle" x="83" y="-68.4" font-family="Times Roman,serif" font-size="14.00">users_games_discards</text>
<polyline fill="none" stroke="black" points="-0.5,-60 166.5,-60 "/>
<text text-anchor="start" x="7.5" y="-43.4" font-family="Times Roman,serif" font-size="14.00">&#45; id [PK]</text>
<text text-anchor="start" x="7.5" y="-26.4" font-family="Times Roman,serif" font-size="14.00">&#45; user_game [FK,U]</text>
<text text-anchor="start" x="7.5" y="-9.4" font-family="Times Roman,serif" font-size="14.00">&#45; wcardidx [U]</text>
</g>
<!-- node4&#45;&gt;node6 -->
<g id="edge14" class="edge"><title>node4&#45;&gt;node6</title>
<path fill="none" stroke="black" d="M124.113,-122.917C119.105,-113.182 114.155,-103.559 109.518,-94.5455"/>
<polygon fill="black" stroke="black" points="112.496,-92.6844 104.809,-85.3932 106.272,-95.8867 112.496,-92.6844"/>
</g>
<!-- node7 -->
<g id="node7" class="node"><title>node7</title>
<polygon fill="white" stroke="black" points="184,-1 184,-85 338,-85 338,-1 184,-1"/>
<text text-anchor="middle" x="261" y="-68.4" font-family="Times Roman,serif" font-size="14.00">users_games_hands</text>
<polyline fill="none" stroke="black" points="184,-60 338,-60 "/>
<text text-anchor="start" x="192" y="-43.4" font-family="Times Roman,serif" font-size="14.00">&#45; id [PK]</text>
<text text-anchor="start" x="192" y="-26.4" font-family="Times Roman,serif" font-size="14.00">&#45; user_game [FK,U]</text>
<text text-anchor="start" x="192" y="-9.4" font-family="Times Roman,serif" font-size="14.00">&#45; wcardidx [U]</text>
</g>
<!-- node4&#45;&gt;node7 -->
<g id="edge16" class="edge"><title>node4&#45;&gt;node7</title>
<path fill="none" stroke="black" d="M219.887,-122.917C224.895,-113.182 229.845,-103.559 234.482,-94.5455"/>
<polygon fill="black" stroke="black" points="237.728,-95.8867 239.191,-85.3932 231.504,-92.6844 237.728,-95.8867"/>
</g>
</g>
</svg>
