<?xml version="1.0" encoding="UTF-8" standalone="no"?>
<!DOCTYPE svg PUBLIC "-//W3C//DTD SVG 1.1//EN"
 "http://www.w3.org/Graphics/SVG/1.1/DTD/svg11.dtd">
<!-- Generated by graphviz version 2.26.3 (20100126.1600)
 -->
<!-- Title: test Pages: 1 -->
<svg width="466pt" height="646pt"
 viewBox="0.00 0.00 466.00 646.00" xmlns="http://www.w3.org/2000/svg" xmlns:xlink="http://www.w3.org/1999/xlink">
<g id="graph1" class="graph" transform="scale(1 1) rotate(0) translate(4 642)">
<title>test</title>
<polygon fill="lightgoldenrodyellow" stroke="lightgoldenrodyellow" points="-4,5 -4,-642 463,-642 463,5 -4,5"/>
<!-- node1 -->
<g id="node1" class="node"><title>node1</title>
<polygon fill="white" stroke="black" points="233.5,-536.5 233.5,-637.5 358.5,-637.5 358.5,-536.5 233.5,-536.5"/>
<text text-anchor="middle" x="296" y="-620.9" font-family="Times Roman,serif" font-size="14.00">channels</text>
<polyline fill="none" stroke="black" points="233.5,-612.5 358.5,-612.5 "/>
<text text-anchor="start" x="241.5" y="-595.9" font-family="Times Roman,serif" font-size="14.00">&#45; id [PK]</text>
<text text-anchor="start" x="241.5" y="-578.9" font-family="Times Roman,serif" font-size="14.00">&#45; name [U]</text>
<text text-anchor="start" x="241.5" y="-561.9" font-family="Times Roman,serif" font-size="14.00">&#45; disp_name [U]</text>
<text text-anchor="start" x="241.5" y="-544.9" font-family="Times Roman,serif" font-size="14.00">&#45; welcome</text>
</g>
<!-- node3 -->
<g id="node3" class="node"><title>node3</title>
<polygon fill="white" stroke="black" points="232,-347 232,-499 360,-499 360,-347 232,-347"/>
<text text-anchor="middle" x="296" y="-482.4" font-family="Times Roman,serif" font-size="14.00">games</text>
<polyline fill="none" stroke="black" points="232,-474 360,-474 "/>
<text text-anchor="start" x="240" y="-457.4" font-family="Times Roman,serif" font-size="14.00">&#45; id [PK,FK]</text>
<text text-anchor="start" x="240" y="-440.4" font-family="Times Roman,serif" font-size="14.00">&#45; channel [FK,U]</text>
<text text-anchor="start" x="240" y="-423.4" font-family="Times Roman,serif" font-size="14.00">&#45; create_time</text>
<text text-anchor="start" x="240" y="-406.4" font-family="Times Roman,serif" font-size="14.00">&#45; activity_time</text>
<text text-anchor="start" x="240" y="-389.4" font-family="Times Roman,serif" font-size="14.00">&#45; status</text>
<text text-anchor="start" x="240" y="-372.4" font-family="Times Roman,serif" font-size="14.00">&#45; deck</text>
<text text-anchor="start" x="240" y="-355.4" font-family="Times Roman,serif" font-size="14.00">&#45; bcardidx [N]</text>
</g>
<!-- node1&#45;&gt;node3 -->
<g id="edge2" class="edge"><title>node1&#45;&gt;node3</title>
<path fill="none" stroke="black" d="M296,-536.456C296,-527.748 296,-518.481 296,-509.143"/>
<polygon fill="black" stroke="black" points="299.5,-509.004 296,-499.005 292.5,-509.005 299.5,-509.004"/>
</g>
<!-- node2 -->
<g id="node2" class="node"><title>node2</title>
<polygon fill="white" stroke="black" points="104,-381 104,-465 214,-465 214,-381 104,-381"/>
<text text-anchor="middle" x="159" y="-448.4" font-family="Times Roman,serif" font-size="14.00">users</text>
<polyline fill="none" stroke="black" points="104,-440 214,-440 "/>
<text text-anchor="start" x="112" y="-423.4" font-family="Times Roman,serif" font-size="14.00">&#45; id [PK]</text>
<text text-anchor="start" x="112" y="-406.4" font-family="Times Roman,serif" font-size="14.00">&#45; nick [U]</text>
<text text-anchor="start" x="112" y="-389.4" font-family="Times Roman,serif" font-size="14.00">&#45; pronoun [N]</text>
</g>
<!-- node4 -->
<g id="node4" class="node"><title>node4</title>
<polygon fill="white" stroke="black" points="114,-123 114,-309 230,-309 230,-123 114,-123"/>
<text text-anchor="middle" x="172" y="-292.4" font-family="Times Roman,serif" font-size="14.00">users_games</text>
<polyline fill="none" stroke="black" points="114,-284 230,-284 "/>
<text text-anchor="start" x="122" y="-267.4" font-family="Times Roman,serif" font-size="14.00">&#45; id [PK]</text>
<text text-anchor="start" x="122" y="-250.4" font-family="Times Roman,serif" font-size="14.00">&#45; user [FK,U]</text>
<text text-anchor="start" x="122" y="-233.4" font-family="Times Roman,serif" font-size="14.00">&#45; game [FK,U]</text>
<text text-anchor="start" x="122" y="-216.4" font-family="Times Roman,serif" font-size="14.00">&#45; wins</text>
<text text-anchor="start" x="122" y="-199.4" font-family="Times Roman,serif" font-size="14.00">&#45; hands</text>
<text text-anchor="start" x="122" y="-182.4" font-family="Times Roman,serif" font-size="14.00">&#45; tsarcount</text>
<text text-anchor="start" x="122" y="-165.4" font-family="Times Roman,serif" font-size="14.00">&#45; is_tsar</text>
<text text-anchor="start" x="122" y="-148.4" font-family="Times Roman,serif" font-size="14.00">&#45; activity_time</text>
<text text-anchor="start" x="122" y="-131.4" font-family="Times Roman,serif" font-size="14.00">&#45; active</text>
</g>
<!-- node2&#45;&gt;node4 -->
<g id="edge10" class="edge"><title>node2&#45;&gt;node4</title>
<path fill="none" stroke="black" d="M161.646,-380.861C162.773,-362.922 164.141,-341.133 165.509,-319.353"/>
<polygon fill="black" stroke="black" points="169.003,-319.56 166.137,-309.361 162.017,-319.122 169.003,-319.56"/>
</g>
<!-- node3&#45;&gt;node4 -->
<g id="edge6" class="edge"><title>node3&#45;&gt;node4</title>
<path fill="none" stroke="black" d="M243.818,-346.803C238.065,-337.447 232.198,-327.771 226.419,-318.111"/>
<polygon fill="black" stroke="black" points="229.267,-316.054 221.142,-309.254 223.253,-319.636 229.267,-316.054"/>
</g>
<!-- node5 -->
<g id="node5" class="node"><title>node5</title>
<polygon fill="white" stroke="black" points="248,-174 248,-258 344,-258 344,-174 248,-174"/>
<text text-anchor="middle" x="296" y="-241.4" font-family="Times Roman,serif" font-size="14.00">bcards</text>
<polyline fill="none" stroke="black" points="248,-233 344,-233 "/>
<text text-anchor="start" x="256" y="-216.4" font-family="Times Roman,serif" font-size="14.00">&#45; id [PK]</text>
<text text-anchor="start" x="256" y="-199.4" font-family="Times Roman,serif" font-size="14.00">&#45; game [FK]</text>
<text text-anchor="start" x="256" y="-182.4" font-family="Times Roman,serif" font-size="14.00">&#45; cardidx</text>
</g>
<!-- node3&#45;&gt;node5 -->
<g id="edge4" class="edge"><title>node3&#45;&gt;node5</title>
<path fill="none" stroke="black" d="M296,-346.803C296,-320.694 296,-292.089 296,-268.305"/>
<polygon fill="black" stroke="black" points="299.5,-268.086 296,-258.086 292.5,-268.086 299.5,-268.086"/>
</g>
<!-- node8 -->
<g id="node8" class="node"><title>node8</title>
<polygon fill="white" stroke="black" points="362,-174 362,-258 458,-258 458,-174 362,-174"/>
<text text-anchor="middle" x="410" y="-241.4" font-family="Times Roman,serif" font-size="14.00">wcards</text>
<polyline fill="none" stroke="black" points="362,-233 458,-233 "/>
<text text-anchor="start" x="370" y="-216.4" font-family="Times Roman,serif" font-size="14.00">&#45; id [PK]</text>
<text text-anchor="start" x="370" y="-199.4" font-family="Times Roman,serif" font-size="14.00">&#45; game [FK]</text>
<text text-anchor="start" x="370" y="-182.4" font-family="Times Roman,serif" font-size="14.00">&#45; cardidx</text>
</g>
<!-- node3&#45;&gt;node8 -->
<g id="edge8" class="edge"><title>node3&#45;&gt;node8</title>
<path fill="none" stroke="black" d="M337.964,-346.803C352.6,-320.226 368.662,-291.062 381.897,-267.03"/>
<polygon fill="black" stroke="black" points="385.064,-268.534 386.822,-258.086 378.932,-265.157 385.064,-268.534"/>
</g>
<!-- node4&#45;&gt;node3 -->
<g id="edge12" class="edge"><title>node4&#45;&gt;node3</title>
<path fill="none" stroke="black" d="M230.069,-301.817C237.382,-313.823 244.767,-326.156 251.82,-338.144"/>
<polygon fill="black" stroke="black" points="248.818,-339.943 256.892,-346.803 254.858,-336.405 248.818,-339.943"/>
</g>
<!-- node6 -->
<g id="node6" class="node"><title>node6</title>
<polygon fill="white" stroke="black" points="-0.5,-1 -0.5,-85 166.5,-85 166.5,-1 -0.5,-1"/>
<text text-anchor="middle" x="83" y="-68.4" font-family="Times Roman,serif" font-size="14.00">users_games_discards</text>
<polyline fill="none" stroke="black" points="-0.5,-60 166.5,-60 "/>
<text text-anchor="start" x="7.5" y="-43.4" font-family="Times Roman,serif" font-size="14.00">&#45; id [PK]</text>
<text text-anchor="start" x="7.5" y="-26.4" font-family="Times Roman,serif" font-size="14.00">&#45; user_game [FK,U]</text>
<text text-anchor="start" x="7.5" y="-9.4" font-family="Times Roman,serif" font-size="14.00">&#45; wcardidx [U]</text>
</g>
<!-- node4&#45;&gt;node6 -->
<g id="edge14" class="edge"><title>node4&#45;&gt;node6</title>
<path fill="none" stroke="black" d="M124.113,-122.917C119.105,-113.182 114.155,-103.559 109.518,-94.5455"/>
<polygon fill="black" stroke="black" points="112.496,-92.6844 104.809,-85.3932 106.272,-95.8867 112.496,-92.6844"/>
</g>
<!-- node7 -->
<g id="node7" class="node"><title>node7</title>
<polygon fill="white" stroke="black" points="184,-1 184,-85 338,-85 338,-1 184,-1"/>
<text text-anchor="middle" x="261" y="-68.4" font-family="Times Roman,serif" font-size="14.00">users_games_hands</text>
<polyline fill="none" stroke="black" points="184,-60 338,-60 "/>
<text text-anchor="start" x="192" y="-43.4" font-family="Times Roman,serif" font-size="14.00">&#45; id [PK]</text>
<text text-anchor="start" x="192" y="-26.4" font-family="Times Roman,serif" font-size="14.00">&#45; user_game [FK,U]</text>
<text text-anchor="start" x="192" y="-9.4" font-family="Times Roman,serif" font-size="14.00">&#45; wcardidx [U]</text>
</g>
<!-- node4&#45;&gt;node7 -->
<g id="edge16" class="edge"><title>node4&#45;&gt;node7</title>
<path fill="none" stroke="black" d="M219.887,-122.917C224.895,-113.182 229.845,-103.559 234.482,-94.5455"/>
<polygon fill="black" stroke="black" points="237.728,-95.8867 239.191,-85.3932 231.504,-92.6844 237.728,-95.8867"/>
</g>
</g>
</svg>
