<?xml version="1.0" encoding="UTF-8" standalone="no"?>
<!DOCTYPE svg PUBLIC "-//W3C//DTD SVG 1.1//EN"
 "http://www.w3.org/Graphics/SVG/1.1/DTD/svg11.dtd">
<!-- Generated by graphviz version 2.26.3 (20100126.1600)
 -->
<!-- Title: test Pages: 1 -->
<svg width="466pt" height="662pt"
 viewBox="0.00 0.00 466.00 662.00" xmlns="http://www.w3.org/2000/svg" xmlns:xlink="http://www.w3.org/1999/xlink">
<g id="graph1" class="graph" transform="scale(1 1) rotate(0) translate(4 658)">
<title>test</title>
<polygon fill="lightgoldenrodyellow" stroke="lightgoldenrodyellow" points="-4,5 -4,-658 463,-658 463,5 -4,5"/>
<!-- node1 -->
<g id="node1" class="node"><title>node1</title>
<polygon fill="white" stroke="black" points="233.5,-552.5 233.5,-653.5 358.5,-653.5 358.5,-552.5 233.5,-552.5"/>
<text text-anchor="middle" x="296" y="-636.9" font-family="Times Roman,serif" font-size="14.00">channels</text>
<polyline fill="none" stroke="black" points="233.5,-628.5 358.5,-628.5 "/>
<text text-anchor="start" x="241.5" y="-611.9" font-family="Times Roman,serif" font-size="14.00">&#45; id [PK]</text>
<text text-anchor="start" x="241.5" y="-594.9" font-family="Times Roman,serif" font-size="14.00">&#45; name [U]</text>
<text text-anchor="start" x="241.5" y="-577.9" font-family="Times Roman,serif" font-size="14.00">&#45; disp_name [U]</text>
<text text-anchor="start" x="241.5" y="-560.9" font-family="Times Roman,serif" font-size="14.00">&#45; welcome</text>
</g>
<!-- node3 -->
<g id="node3" class="node"><title>node3</title>
<polygon fill="white" stroke="black" points="232,-346.5 232,-515.5 360,-515.5 360,-346.5 232,-346.5"/>
<text text-anchor="middle" x="296" y="-498.9" font-family="Times Roman,serif" font-size="14.00">games</text>
<polyline fill="none" stroke="black" points="232,-490.5 360,-490.5 "/>
<text text-anchor="start" x="240" y="-473.9" font-family="Times Roman,serif" font-size="14.00">&#45; id [PK,FK]</text>
<text text-anchor="start" x="240" y="-456.9" font-family="Times Roman,serif" font-size="14.00">&#45; channel [FK,U]</text>
<text text-anchor="start" x="240" y="-439.9" font-family="Times Roman,serif" font-size="14.00">&#45; create_time</text>
<text text-anchor="start" x="240" y="-422.9" font-family="Times Roman,serif" font-size="14.00">&#45; activity_time</text>
<text text-anchor="start" x="240" y="-405.9" font-family="Times Roman,serif" font-size="14.00">&#45; round_time</text>
<text text-anchor="start" x="240" y="-388.9" font-family="Times Roman,serif" font-size="14.00">&#45; status</text>
<text text-anchor="start" x="240" y="-371.9" font-family="Times Roman,serif" font-size="14.00">&#45; deck</text>
<text text-anchor="start" x="240" y="-354.9" font-family="Times Roman,serif" font-size="14.00">&#45; bcardidx [N]</text>
</g>
<!-- node1&#45;&gt;node3 -->
<g id="edge2" class="edge"><title>node1&#45;&gt;node3</title>
<path fill="none" stroke="black" d="M296,-552.325C296,-543.81 296,-534.737 296,-525.532"/>
<polygon fill="black" stroke="black" points="299.5,-525.512 296,-515.512 292.5,-525.512 299.5,-525.512"/>
</g>
<!-- node2 -->
<g id="node2" class="node"><title>node2</title>
<polygon fill="white" stroke="black" points="85.5,-380.5 85.5,-481.5 214.5,-481.5 214.5,-380.5 85.5,-380.5"/>
<text text-anchor="middle" x="150" y="-464.9" font-family="Times Roman,serif" font-size="14.00">users</text>
<polyline fill="none" stroke="black" points="85.5,-456.5 214.5,-456.5 "/>
<text text-anchor="start" x="93.5" y="-439.9" font-family="Times Roman,serif" font-size="14.00">&#45; id [PK]</text>
<text text-anchor="start" x="93.5" y="-422.9" font-family="Times Roman,serif" font-size="14.00">&#45; nick [U]</text>
<text text-anchor="start" x="93.5" y="-405.9" font-family="Times Roman,serif" font-size="14.00">&#45; disp_nick [U,N]</text>
<text text-anchor="start" x="93.5" y="-388.9" font-family="Times Roman,serif" font-size="14.00">&#45; pronoun [N]</text>
</g>
<!-- node4 -->
<g id="node4" class="node"><title>node4</title>
<polygon fill="white" stroke="black" points="114,-123 114,-309 230,-309 230,-123 114,-123"/>
<text text-anchor="middle" x="172" y="-292.4" font-family="Times Roman,serif" font-size="14.00">users_games</text>
<polyline fill="none" stroke="black" points="114,-284 230,-284 "/>
<text text-anchor="start" x="122" y="-267.4" font-family="Times Roman,serif" font-size="14.00">&#45; id [PK]</text>
<text text-anchor="start" x="122" y="-250.4" font-family="Times Roman,serif" font-size="14.00">&#45; user [FK,U]</text>
<text text-anchor="start" x="122" y="-233.4" font-family="Times Roman,serif" font-size="14.00">&#45; game [FK,U]</text>
<text text-anchor="start" x="122" y="-216.4" font-family="Times Roman,serif" font-size="14.00">&#45; wins</text>
<text text-anchor="start" x="122" y="-199.4" font-family="Times Roman,serif" font-size="14.00">&#45; hands</text>
<text text-anchor="start" x="122" y="-182.4" font-family="Times Roman,serif" font-size="14.00">&#45; tsarcount</text>
<text text-anchor="start" x="122" y="-165.4" font-family="Times Roman,serif" font-size="14.00">&#45; is_tsar</text>
<text text-anchor="start" x="122" y="-148.4" font-family="Times Roman,serif" font-size="14.00">&#45; activity_time</text>
<text text-anchor="start" x="122" y="-131.4" font-family="Times Roman,serif" font-size="14.00">&#45; active</text>
</g>
<!-- node2&#45;&gt;node4 -->
<g id="edge10" class="edge"><title>node2&#45;&gt;node4</title>
<path fill="none" stroke="black" d="M155.186,-380.32C157.061,-361.993 159.253,-340.575 161.423,-319.371"/>
<polygon fill="black" stroke="black" points="164.914,-319.63 162.45,-309.326 157.951,-318.917 164.914,-319.63"/>
</g>
<!-- node3&#45;&gt;node4 -->
<g id="edge6" class="edge"><title>node3&#45;&gt;node4</title>
<path fill="none" stroke="black" d="M240.557,-346.335C235.047,-336.978 229.468,-327.379 223.994,-317.84"/>
<polygon fill="black" stroke="black" points="227.003,-316.051 219.002,-309.105 220.925,-319.524 227.003,-316.051"/>
</g>
<!-- node5 -->
<g id="node5" class="node"><title>node5</title>
<polygon fill="white" stroke="black" points="248,-174 248,-258 344,-258 344,-174 248,-174"/>
<text text-anchor="middle" x="296" y="-241.4" font-family="Times Roman,serif" font-size="14.00">bcards</text>
<polyline fill="none" stroke="black" points="248,-233 344,-233 "/>
<text text-anchor="start" x="256" y="-216.4" font-family="Times Roman,serif" font-size="14.00">&#45; id [PK]</text>
<text text-anchor="start" x="256" y="-199.4" font-family="Times Roman,serif" font-size="14.00">&#45; game [FK]</text>
<text text-anchor="start" x="256" y="-182.4" font-family="Times Roman,serif" font-size="14.00">&#45; cardidx</text>
</g>
<!-- node3&#45;&gt;node5 -->
<g id="edge4" class="edge"><title>node3&#45;&gt;node5</title>
<path fill="none" stroke="black" d="M296,-346.335C296,-319.925 296,-291.588 296,-268.104"/>
<polygon fill="black" stroke="black" points="299.5,-268.019 296,-258.02 292.5,-268.02 299.5,-268.019"/>
</g>
<!-- node8 -->
<g id="node8" class="node"><title>node8</title>
<polygon fill="white" stroke="black" points="362,-174 362,-258 458,-258 458,-174 362,-174"/>
<text text-anchor="middle" x="410" y="-241.4" font-family="Times Roman,serif" font-size="14.00">wcards</text>
<polyline fill="none" stroke="black" points="362,-233 458,-233 "/>
<text text-anchor="start" x="370" y="-216.4" font-family="Times Roman,serif" font-size="14.00">&#45; id [PK]</text>
<text text-anchor="start" x="370" y="-199.4" font-family="Times Roman,serif" font-size="14.00">&#45; game [FK]</text>
<text text-anchor="start" x="370" y="-182.4" font-family="Times Roman,serif" font-size="14.00">&#45; cardidx</text>
</g>
<!-- node3&#45;&gt;node8 -->
<g id="edge8" class="edge"><title>node3&#45;&gt;node8</title>
<path fill="none" stroke="black" d="M340.892,-346.335C355.084,-319.57 370.325,-290.826 382.874,-267.159"/>
<polygon fill="black" stroke="black" points="386.128,-268.494 387.72,-258.02 379.943,-265.215 386.128,-268.494"/>
</g>
<!-- node4&#45;&gt;node3 -->
<g id="edge12" class="edge"><title>node4&#45;&gt;node3</title>
<path fill="none" stroke="black" d="M230.101,-305.188C236.338,-315.825 242.627,-326.708 248.718,-337.404"/>
<polygon fill="black" stroke="black" points="245.806,-339.362 253.783,-346.335 251.895,-335.91 245.806,-339.362"/>
</g>
<!-- node6 -->
<g id="node6" class="node"><title>node6</title>
<polygon fill="white" stroke="black" points="-0.5,-1 -0.5,-85 166.5,-85 166.5,-1 -0.5,-1"/>
<text text-anchor="middle" x="83" y="-68.4" font-family="Times Roman,serif" font-size="14.00">users_games_discards</text>
<polyline fill="none" stroke="black" points="-0.5,-60 166.5,-60 "/>
<text text-anchor="start" x="7.5" y="-43.4" font-family="Times Roman,serif" font-size="14.00">&#45; id [PK]</text>
<text text-anchor="start" x="7.5" y="-26.4" font-family="Times Roman,serif" font-size="14.00">&#45; user_game [FK,U]</text>
<text text-anchor="start" x="7.5" y="-9.4" font-family="Times Roman,serif" font-size="14.00">&#45; wcardidx [U]</text>
</g>
<!-- node4&#45;&gt;node6 -->
<g id="edge14" class="edge"><title>node4&#45;&gt;node6</title>
<path fill="none" stroke="black" d="M124.113,-122.917C119.105,-113.182 114.155,-103.559 109.518,-94.5455"/>
<polygon fill="black" stroke="black" points="112.496,-92.6844 104.809,-85.3932 106.272,-95.8867 112.496,-92.6844"/>
</g>
<!-- node7 -->
<g id="node7" class="node"><title>node7</title>
<polygon fill="white" stroke="black" points="184,-1 184,-85 338,-85 338,-1 184,-1"/>
<text text-anchor="middle" x="261" y="-68.4" font-family="Times Roman,serif" font-size="14.00">users_games_hands</text>
<polyline fill="none" stroke="black" points="184,-60 338,-60 "/>
<text text-anchor="start" x="192" y="-43.4" font-family="Times Roman,serif" font-size="14.00">&#45; id [PK]</text>
<text text-anchor="start" x="192" y="-26.4" font-family="Times Roman,serif" font-size="14.00">&#45; user_game [FK,U]</text>
<text text-anchor="start" x="192" y="-9.4" font-family="Times Roman,serif" font-size="14.00">&#45; wcardidx [U]</text>
</g>
<!-- node4&#45;&gt;node7 -->
<g id="edge16" class="edge"><title>node4&#45;&gt;node7</title>
<path fill="none" stroke="black" d="M219.887,-122.917C224.895,-113.182 229.845,-103.559 234.482,-94.5455"/>
<polygon fill="black" stroke="black" points="237.728,-95.8867 239.191,-85.3932 231.504,-92.6844 237.728,-95.8867"/>
</g>
</g>
</svg>
