<?xml version="1.0" encoding="UTF-8" standalone="no"?>
<!DOCTYPE svg PUBLIC "-//W3C//DTD SVG 1.1//EN"
 "http://www.w3.org/Graphics/SVG/1.1/DTD/svg11.dtd">
<!-- Generated by graphviz version 2.26.3 (20100126.1600)
 -->
<!-- Title: test Pages: 1 -->
<svg width="463pt" height="646pt"
 viewBox="0.00 0.00 463.00 646.00" xmlns="http://www.w3.org/2000/svg" xmlns:xlink="http://www.w3.org/1999/xlink">
<g id="graph1" class="graph" transform="scale(1 1) rotate(0) translate(4 642)">
<title>test</title>
<polygon fill="lightgoldenrodyellow" stroke="lightgoldenrodyellow" points="-4,5 -4,-642 460,-642 460,5 -4,5"/>
<!-- node1 -->
<g id="node1" class="node"><title>node1</title>
<polygon fill="white" stroke="black" points="230.5,-536.5 230.5,-637.5 355.5,-637.5 355.5,-536.5 230.5,-536.5"/>
<text text-anchor="middle" x="293" y="-620.9" font-family="Times Roman,serif" font-size="14.00">channels</text>
<polyline fill="none" stroke="black" points="230.5,-612.5 355.5,-612.5 "/>
<text text-anchor="start" x="238.5" y="-595.9" font-family="Times Roman,serif" font-size="14.00">&#45; id [PK]</text>
<text text-anchor="start" x="238.5" y="-578.9" font-family="Times Roman,serif" font-size="14.00">&#45; name [U]</text>
<text text-anchor="start" x="238.5" y="-561.9" font-family="Times Roman,serif" font-size="14.00">&#45; disp_name [U]</text>
<text text-anchor="start" x="238.5" y="-544.9" font-family="Times Roman,serif" font-size="14.00">&#45; welcome</text>
</g>
<!-- node3 -->
<g id="node3" class="node"><title>node3</title>
<polygon fill="white" stroke="black" points="229,-347 229,-499 357,-499 357,-347 229,-347"/>
<text text-anchor="middle" x="293" y="-482.4" font-family="Times Roman,serif" font-size="14.00">games</text>
<polyline fill="none" stroke="black" points="229,-474 357,-474 "/>
<text text-anchor="start" x="237" y="-457.4" font-family="Times Roman,serif" font-size="14.00">&#45; id [PK,FK]</text>
<text text-anchor="start" x="237" y="-440.4" font-family="Times Roman,serif" font-size="14.00">&#45; channel [FK,U]</text>
<text text-anchor="start" x="237" y="-423.4" font-family="Times Roman,serif" font-size="14.00">&#45; create_time</text>
<text text-anchor="start" x="237" y="-406.4" font-family="Times Roman,serif" font-size="14.00">&#45; activity_time</text>
<text text-anchor="start" x="237" y="-389.4" font-family="Times Roman,serif" font-size="14.00">&#45; status</text>
<text text-anchor="start" x="237" y="-372.4" font-family="Times Roman,serif" font-size="14.00">&#45; deck</text>
<text text-anchor="start" x="237" y="-355.4" font-family="Times Roman,serif" font-size="14.00">&#45; bcardidx [N]</text>
</g>
<!-- node1&#45;&gt;node3 -->
<g id="edge2" class="edge"><title>node1&#45;&gt;node3</title>
<path fill="none" stroke="black" d="M293,-536.456C293,-527.748 293,-518.481 293,-509.143"/>
<polygon fill="black" stroke="black" points="296.5,-509.004 293,-499.005 289.5,-509.005 296.5,-509.004"/>
</g>
<!-- node2 -->
<g id="node2" class="node"><title>node2</title>
<polygon fill="white" stroke="black" points="131,-389.5 131,-456.5 211,-456.5 211,-389.5 131,-389.5"/>
<text text-anchor="middle" x="171" y="-439.9" font-family="Times Roman,serif" font-size="14.00">users</text>
<polyline fill="none" stroke="black" points="131,-431.5 211,-431.5 "/>
<text text-anchor="start" x="139" y="-414.9" font-family="Times Roman,serif" font-size="14.00">&#45; id [PK]</text>
<text text-anchor="start" x="139" y="-397.9" font-family="Times Roman,serif" font-size="14.00">&#45; nick [U]</text>
</g>
<!-- node4 -->
<g id="node4" class="node"><title>node4</title>
<polygon fill="white" stroke="black" points="116.5,-123 116.5,-309 227.5,-309 227.5,-123 116.5,-123"/>
<text text-anchor="middle" x="172" y="-292.4" font-family="Times Roman,serif" font-size="14.00">users_games</text>
<polyline fill="none" stroke="black" points="116.5,-284 227.5,-284 "/>
<text text-anchor="start" x="124.5" y="-267.4" font-family="Times Roman,serif" font-size="14.00">&#45; id [PK]</text>
<text text-anchor="start" x="124.5" y="-250.4" font-family="Times Roman,serif" font-size="14.00">&#45; user [FK,U]</text>
<text text-anchor="start" x="124.5" y="-233.4" font-family="Times Roman,serif" font-size="14.00">&#45; game [FK,U]</text>
<text text-anchor="start" x="124.5" y="-216.4" font-family="Times Roman,serif" font-size="14.00">&#45; wins</text>
<text text-anchor="start" x="124.5" y="-199.4" font-family="Times Roman,serif" font-size="14.00">&#45; hands</text>
<text text-anchor="start" x="124.5" y="-182.4" font-family="Times Roman,serif" font-size="14.00">&#45; tsarcount</text>
<text text-anchor="start" x="124.5" y="-165.4" font-family="Times Roman,serif" font-size="14.00">&#45; is_tsar</text>
<text text-anchor="start" x="124.5" y="-148.4" font-family="Times Roman,serif" font-size="14.00">&#45; wait_since</text>
<text text-anchor="start" x="124.5" y="-131.4" font-family="Times Roman,serif" font-size="14.00">&#45; active</text>
</g>
<!-- node2&#45;&gt;node4 -->
<g id="edge10" class="edge"><title>node2&#45;&gt;node4</title>
<path fill="none" stroke="black" d="M171.163,-389.281C171.256,-369.964 171.379,-344.576 171.501,-319.212"/>
<polygon fill="black" stroke="black" points="175.002,-319.143 171.55,-309.127 168.002,-319.11 175.002,-319.143"/>
</g>
<!-- node3&#45;&gt;node4 -->
<g id="edge6" class="edge"><title>node3&#45;&gt;node4</title>
<path fill="none" stroke="black" d="M241.923,-346.803C236.305,-337.447 230.578,-327.771 224.939,-318.111"/>
<polygon fill="black" stroke="black" points="227.842,-316.141 219.79,-309.254 221.79,-319.658 227.842,-316.141"/>
</g>
<!-- node5 -->
<g id="node5" class="node"><title>node5</title>
<polygon fill="white" stroke="black" points="245,-174 245,-258 341,-258 341,-174 245,-174"/>
<text text-anchor="middle" x="293" y="-241.4" font-family="Times Roman,serif" font-size="14.00">bcards</text>
<polyline fill="none" stroke="black" points="245,-233 341,-233 "/>
<text text-anchor="start" x="253" y="-216.4" font-family="Times Roman,serif" font-size="14.00">&#45; id [PK]</text>
<text text-anchor="start" x="253" y="-199.4" font-family="Times Roman,serif" font-size="14.00">&#45; game [FK]</text>
<text text-anchor="start" x="253" y="-182.4" font-family="Times Roman,serif" font-size="14.00">&#45; cardidx</text>
</g>
<!-- node3&#45;&gt;node5 -->
<g id="edge4" class="edge"><title>node3&#45;&gt;node5</title>
<path fill="none" stroke="black" d="M293,-346.803C293,-320.694 293,-292.089 293,-268.305"/>
<polygon fill="black" stroke="black" points="296.5,-268.086 293,-258.086 289.5,-268.086 296.5,-268.086"/>
</g>
<!-- node8 -->
<g id="node8" class="node"><title>node8</title>
<polygon fill="white" stroke="black" points="359,-174 359,-258 455,-258 455,-174 359,-174"/>
<text text-anchor="middle" x="407" y="-241.4" font-family="Times Roman,serif" font-size="14.00">wcards</text>
<polyline fill="none" stroke="black" points="359,-233 455,-233 "/>
<text text-anchor="start" x="367" y="-216.4" font-family="Times Roman,serif" font-size="14.00">&#45; id [PK]</text>
<text text-anchor="start" x="367" y="-199.4" font-family="Times Roman,serif" font-size="14.00">&#45; game [FK]</text>
<text text-anchor="start" x="367" y="-182.4" font-family="Times Roman,serif" font-size="14.00">&#45; cardidx</text>
</g>
<!-- node3&#45;&gt;node8 -->
<g id="edge8" class="edge"><title>node3&#45;&gt;node8</title>
<path fill="none" stroke="black" d="M334.964,-346.803C349.6,-320.226 365.662,-291.062 378.897,-267.03"/>
<polygon fill="black" stroke="black" points="382.064,-268.534 383.822,-258.086 375.932,-265.157 382.064,-268.534"/>
</g>
<!-- node4&#45;&gt;node3 -->
<g id="edge12" class="edge"><title>node4&#45;&gt;node3</title>
<path fill="none" stroke="black" d="M227.569,-299.706C235.108,-312.358 242.747,-325.42 250.023,-338.097"/>
<polygon fill="black" stroke="black" points="246.997,-339.856 254.996,-346.803 253.075,-336.384 246.997,-339.856"/>
</g>
<!-- node6 -->
<g id="node6" class="node"><title>node6</title>
<polygon fill="white" stroke="black" points="-0.5,-1 -0.5,-85 166.5,-85 166.5,-1 -0.5,-1"/>
<text text-anchor="middle" x="83" y="-68.4" font-family="Times Roman,serif" font-size="14.00">users_games_discards</text>
<polyline fill="none" stroke="black" points="-0.5,-60 166.5,-60 "/>
<text text-anchor="start" x="7.5" y="-43.4" font-family="Times Roman,serif" font-size="14.00">&#45; id [PK]</text>
<text text-anchor="start" x="7.5" y="-26.4" font-family="Times Roman,serif" font-size="14.00">&#45; user_game [FK,U]</text>
<text text-anchor="start" x="7.5" y="-9.4" font-family="Times Roman,serif" font-size="14.00">&#45; wcardidx [U]</text>
</g>
<!-- node4&#45;&gt;node6 -->
<g id="edge14" class="edge"><title>node4&#45;&gt;node6</title>
<path fill="none" stroke="black" d="M124.113,-122.917C119.105,-113.182 114.155,-103.559 109.518,-94.5455"/>
<polygon fill="black" stroke="black" points="112.496,-92.6844 104.809,-85.3932 106.272,-95.8867 112.496,-92.6844"/>
</g>
<!-- node7 -->
<g id="node7" class="node"><title>node7</title>
<polygon fill="white" stroke="black" points="184,-1 184,-85 338,-85 338,-1 184,-1"/>
<text text-anchor="middle" x="261" y="-68.4" font-family="Times Roman,serif" font-size="14.00">users_games_hands</text>
<polyline fill="none" stroke="black" points="184,-60 338,-60 "/>
<text text-anchor="start" x="192" y="-43.4" font-family="Times Roman,serif" font-size="14.00">&#45; id [PK]</text>
<text text-anchor="start" x="192" y="-26.4" font-family="Times Roman,serif" font-size="14.00">&#45; user_game [FK,U]</text>
<text text-anchor="start" x="192" y="-9.4" font-family="Times Roman,serif" font-size="14.00">&#45; wcardidx [U]</text>
</g>
<!-- node4&#45;&gt;node7 -->
<g id="edge16" class="edge"><title>node4&#45;&gt;node7</title>
<path fill="none" stroke="black" d="M219.887,-122.917C224.895,-113.182 229.845,-103.559 234.482,-94.5455"/>
<polygon fill="black" stroke="black" points="237.728,-95.8867 239.191,-85.3932 231.504,-92.6844 237.728,-95.8867"/>
</g>
</g>
</svg>
