<?xml version="1.0" encoding="UTF-8" standalone="no"?>
<!DOCTYPE svg PUBLIC "-//W3C//DTD SVG 1.1//EN"
 "http://www.w3.org/Graphics/SVG/1.1/DTD/svg11.dtd">
<!-- Generated by graphviz version 2.26.3 (20100126.1600)
 -->
<!-- Title: test Pages: 1 -->
<svg width="466pt" height="678pt"
 viewBox="0.00 0.00 466.00 678.00" xmlns="http://www.w3.org/2000/svg" xmlns:xlink="http://www.w3.org/1999/xlink">
<g id="graph1" class="graph" transform="scale(1 1) rotate(0) translate(4 674)">
<title>test</title>
<polygon fill="lightgoldenrodyellow" stroke="lightgoldenrodyellow" points="-4,5 -4,-674 463,-674 463,5 -4,5"/>
<!-- node1 -->
<g id="node1" class="node"><title>node1</title>
<polygon fill="white" stroke="black" points="233.5,-568.5 233.5,-669.5 358.5,-669.5 358.5,-568.5 233.5,-568.5"/>
<text text-anchor="middle" x="296" y="-652.9" font-family="Times Roman,serif" font-size="14.00">channels</text>
<polyline fill="none" stroke="black" points="233.5,-644.5 358.5,-644.5 "/>
<text text-anchor="start" x="241.5" y="-627.9" font-family="Times Roman,serif" font-size="14.00">&#45; id [PK]</text>
<text text-anchor="start" x="241.5" y="-610.9" font-family="Times Roman,serif" font-size="14.00">&#45; name [U]</text>
<text text-anchor="start" x="241.5" y="-593.9" font-family="Times Roman,serif" font-size="14.00">&#45; disp_name [U]</text>
<text text-anchor="start" x="241.5" y="-576.9" font-family="Times Roman,serif" font-size="14.00">&#45; welcome</text>
</g>
<!-- node3 -->
<g id="node3" class="node"><title>node3</title>
<polygon fill="white" stroke="black" points="232,-362.5 232,-531.5 360,-531.5 360,-362.5 232,-362.5"/>
<text text-anchor="middle" x="296" y="-514.9" font-family="Times Roman,serif" font-size="14.00">games</text>
<polyline fill="none" stroke="black" points="232,-506.5 360,-506.5 "/>
<text text-anchor="start" x="240" y="-489.9" font-family="Times Roman,serif" font-size="14.00">&#45; id [PK,FK]</text>
<text text-anchor="start" x="240" y="-472.9" font-family="Times Roman,serif" font-size="14.00">&#45; channel [FK,U]</text>
<text text-anchor="start" x="240" y="-455.9" font-family="Times Roman,serif" font-size="14.00">&#45; create_time</text>
<text text-anchor="start" x="240" y="-438.9" font-family="Times Roman,serif" font-size="14.00">&#45; activity_time</text>
<text text-anchor="start" x="240" y="-421.9" font-family="Times Roman,serif" font-size="14.00">&#45; round_time</text>
<text text-anchor="start" x="240" y="-404.9" font-family="Times Roman,serif" font-size="14.00">&#45; status</text>
<text text-anchor="start" x="240" y="-387.9" font-family="Times Roman,serif" font-size="14.00">&#45; packs</text>
<text text-anchor="start" x="240" y="-370.9" font-family="Times Roman,serif" font-size="14.00">&#45; bcardidx [N]</text>
</g>
<!-- node1&#45;&gt;node3 -->
<g id="edge2" class="edge"><title>node1&#45;&gt;node3</title>
<path fill="none" stroke="black" d="M296,-568.325C296,-559.81 296,-550.737 296,-541.532"/>
<polygon fill="black" stroke="black" points="299.5,-541.512 296,-531.512 292.5,-541.512 299.5,-541.512"/>
</g>
<!-- node2 -->
<g id="node2" class="node"><title>node2</title>
<polygon fill="white" stroke="black" points="85.5,-396.5 85.5,-497.5 214.5,-497.5 214.5,-396.5 85.5,-396.5"/>
<text text-anchor="middle" x="150" y="-480.9" font-family="Times Roman,serif" font-size="14.00">users</text>
<polyline fill="none" stroke="black" points="85.5,-472.5 214.5,-472.5 "/>
<text text-anchor="start" x="93.5" y="-455.9" font-family="Times Roman,serif" font-size="14.00">&#45; id [PK]</text>
<text text-anchor="start" x="93.5" y="-438.9" font-family="Times Roman,serif" font-size="14.00">&#45; nick [U]</text>
<text text-anchor="start" x="93.5" y="-421.9" font-family="Times Roman,serif" font-size="14.00">&#45; disp_nick [U,N]</text>
<text text-anchor="start" x="93.5" y="-404.9" font-family="Times Roman,serif" font-size="14.00">&#45; pronoun [N]</text>
</g>
<!-- node4 -->
<g id="node4" class="node"><title>node4</title>
<polygon fill="white" stroke="black" points="114,-139 114,-325 230,-325 230,-139 114,-139"/>
<text text-anchor="middle" x="172" y="-308.4" font-family="Times Roman,serif" font-size="14.00">users_games</text>
<polyline fill="none" stroke="black" points="114,-300 230,-300 "/>
<text text-anchor="start" x="122" y="-283.4" font-family="Times Roman,serif" font-size="14.00">&#45; id [PK]</text>
<text text-anchor="start" x="122" y="-266.4" font-family="Times Roman,serif" font-size="14.00">&#45; user [FK,U]</text>
<text text-anchor="start" x="122" y="-249.4" font-family="Times Roman,serif" font-size="14.00">&#45; game [FK,U]</text>
<text text-anchor="start" x="122" y="-232.4" font-family="Times Roman,serif" font-size="14.00">&#45; wins</text>
<text text-anchor="start" x="122" y="-215.4" font-family="Times Roman,serif" font-size="14.00">&#45; hands</text>
<text text-anchor="start" x="122" y="-198.4" font-family="Times Roman,serif" font-size="14.00">&#45; tsarcount</text>
<text text-anchor="start" x="122" y="-181.4" font-family="Times Roman,serif" font-size="14.00">&#45; is_tsar</text>
<text text-anchor="start" x="122" y="-164.4" font-family="Times Roman,serif" font-size="14.00">&#45; activity_time</text>
<text text-anchor="start" x="122" y="-147.4" font-family="Times Roman,serif" font-size="14.00">&#45; active</text>
</g>
<!-- node2&#45;&gt;node4 -->
<g id="edge10" class="edge"><title>node2&#45;&gt;node4</title>
<path fill="none" stroke="black" d="M155.186,-396.32C157.061,-377.993 159.253,-356.575 161.423,-335.371"/>
<polygon fill="black" stroke="black" points="164.914,-335.63 162.45,-325.326 157.951,-334.917 164.914,-335.63"/>
</g>
<!-- node3&#45;&gt;node4 -->
<g id="edge6" class="edge"><title>node3&#45;&gt;node4</title>
<path fill="none" stroke="black" d="M240.557,-362.335C235.047,-352.978 229.468,-343.379 223.994,-333.84"/>
<polygon fill="black" stroke="black" points="227.003,-332.051 219.002,-325.105 220.925,-335.524 227.003,-332.051"/>
</g>
<!-- node5 -->
<g id="node5" class="node"><title>node5</title>
<polygon fill="white" stroke="black" points="248,-190 248,-274 344,-274 344,-190 248,-190"/>
<text text-anchor="middle" x="296" y="-257.4" font-family="Times Roman,serif" font-size="14.00">bcards</text>
<polyline fill="none" stroke="black" points="248,-249 344,-249 "/>
<text text-anchor="start" x="256" y="-232.4" font-family="Times Roman,serif" font-size="14.00">&#45; id [PK]</text>
<text text-anchor="start" x="256" y="-215.4" font-family="Times Roman,serif" font-size="14.00">&#45; game [FK]</text>
<text text-anchor="start" x="256" y="-198.4" font-family="Times Roman,serif" font-size="14.00">&#45; cardidx</text>
</g>
<!-- node3&#45;&gt;node5 -->
<g id="edge4" class="edge"><title>node3&#45;&gt;node5</title>
<path fill="none" stroke="black" d="M296,-362.335C296,-335.925 296,-307.588 296,-284.104"/>
<polygon fill="black" stroke="black" points="299.5,-284.019 296,-274.02 292.5,-284.02 299.5,-284.019"/>
</g>
<!-- node8 -->
<g id="node8" class="node"><title>node8</title>
<polygon fill="white" stroke="black" points="362,-190 362,-274 458,-274 458,-190 362,-190"/>
<text text-anchor="middle" x="410" y="-257.4" font-family="Times Roman,serif" font-size="14.00">wcards</text>
<polyline fill="none" stroke="black" points="362,-249 458,-249 "/>
<text text-anchor="start" x="370" y="-232.4" font-family="Times Roman,serif" font-size="14.00">&#45; id [PK]</text>
<text text-anchor="start" x="370" y="-215.4" font-family="Times Roman,serif" font-size="14.00">&#45; game [FK]</text>
<text text-anchor="start" x="370" y="-198.4" font-family="Times Roman,serif" font-size="14.00">&#45; cardidx</text>
</g>
<!-- node3&#45;&gt;node8 -->
<g id="edge8" class="edge"><title>node3&#45;&gt;node8</title>
<path fill="none" stroke="black" d="M340.892,-362.335C355.084,-335.57 370.325,-306.826 382.874,-283.159"/>
<polygon fill="black" stroke="black" points="386.128,-284.494 387.72,-274.02 379.943,-281.215 386.128,-284.494"/>
</g>
<!-- node4&#45;&gt;node3 -->
<g id="edge12" class="edge"><title>node4&#45;&gt;node3</title>
<path fill="none" stroke="black" d="M230.101,-321.188C236.338,-331.825 242.627,-342.708 248.718,-353.404"/>
<polygon fill="black" stroke="black" points="245.806,-355.362 253.783,-362.335 251.895,-351.91 245.806,-355.362"/>
</g>
<!-- node6 -->
<g id="node6" class="node"><title>node6</title>
<polygon fill="white" stroke="black" points="-0.5,-9 -0.5,-93 166.5,-93 166.5,-9 -0.5,-9"/>
<text text-anchor="middle" x="83" y="-76.4" font-family="Times Roman,serif" font-size="14.00">users_games_discards</text>
<polyline fill="none" stroke="black" points="-0.5,-68 166.5,-68 "/>
<text text-anchor="start" x="7.5" y="-51.4" font-family="Times Roman,serif" font-size="14.00">&#45; id [PK]</text>
<text text-anchor="start" x="7.5" y="-34.4" font-family="Times Roman,serif" font-size="14.00">&#45; user_game [FK,U]</text>
<text text-anchor="start" x="7.5" y="-17.4" font-family="Times Roman,serif" font-size="14.00">&#45; wcardidx [U]</text>
</g>
<!-- node4&#45;&gt;node6 -->
<g id="edge14" class="edge"><title>node4&#45;&gt;node6</title>
<path fill="none" stroke="black" d="M126.196,-138.849C120.074,-126.397 113.984,-114.013 108.392,-102.639"/>
<polygon fill="black" stroke="black" points="111.374,-100.773 103.821,-93.3436 105.093,-103.862 111.374,-100.773"/>
</g>
<!-- node7 -->
<g id="node7" class="node"><title>node7</title>
<polygon fill="white" stroke="black" points="184,-0.5 184,-101.5 338,-101.5 338,-0.5 184,-0.5"/>
<text text-anchor="middle" x="261" y="-84.9" font-family="Times Roman,serif" font-size="14.00">users_games_hands</text>
<polyline fill="none" stroke="black" points="184,-76.5 338,-76.5 "/>
<text text-anchor="start" x="192" y="-59.9" font-family="Times Roman,serif" font-size="14.00">&#45; id [PK]</text>
<text text-anchor="start" x="192" y="-42.9" font-family="Times Roman,serif" font-size="14.00">&#45; user_game [FK,U]</text>
<text text-anchor="start" x="192" y="-25.9" font-family="Times Roman,serif" font-size="14.00">&#45; wcardidx [U]</text>
<text text-anchor="start" x="192" y="-8.9" font-family="Times Roman,serif" font-size="14.00">&#45; pos [U,N]</text>
</g>
<!-- node4&#45;&gt;node7 -->
<g id="edge16" class="edge"><title>node4&#45;&gt;node7</title>
<path fill="none" stroke="black" d="M217.804,-138.849C222.482,-129.334 227.141,-119.859 231.574,-110.844"/>
<polygon fill="black" stroke="black" points="234.831,-112.151 236.103,-101.633 228.55,-109.062 234.831,-112.151"/>
</g>
</g>
</svg>
